<svg width="8" height="6" viewBox="0 0 8 6" fill="none" xmlns="http://www.w3.org/2000/svg">
<path d="M3.99373 5.52124C3.86044 5.52157 3.73128 5.46334 3.62865 5.35665L0.206069 1.77856C0.0895779 1.65709 0.0163207 1.48254 0.00241378 1.29331C-0.0114932 1.10409 0.0350893 0.915677 0.131913 0.769535C0.228737 0.623394 0.367872 0.531492 0.518708 0.514045C0.669545 0.496598 0.819728 0.555037 0.93622 0.676505L3.99373 3.88248L7.05123 0.791005C7.10958 0.731561 7.17672 0.68717 7.24879 0.660383C7.32085 0.633596 7.39643 0.624942 7.47117 0.634917C7.54591 0.644892 7.61835 0.6733 7.68431 0.718508C7.75027 0.763716 7.80847 0.824834 7.85554 0.898347C7.90778 0.971928 7.94734 1.05825 7.97175 1.15191C7.99616 1.24556 8.00489 1.34453 7.9974 1.44262C7.9899 1.5407 7.96634 1.63579 7.92818 1.72192C7.89003 1.80805 7.83811 1.88336 7.77568 1.94315L4.3531 5.39959C4.24752 5.48941 4.12099 5.53224 3.99373 5.52124Z" fill="#196A7B"/>
</svg>
