<svg width="68" height="29" viewBox="0 0 68 29" fill="none" xmlns="http://www.w3.org/2000/svg">
<path d="M1.996 28.072C1.612 28.072 1.42 27.76 1.42 27.136V24.472L1.312 22.276C1.096 18.34 0.988 15.448 0.988 13.6C0.988 12.592 0.856 9.448 0.592 4.168C0.544 3.016 0.508 2.284 0.484 1.972C0.46 1.636 0.448 1.456 0.448 1.432V1.18C0.448 1.012 0.568 0.903999 0.808 0.856C0.952 0.807999 1.372 0.783998 2.068 0.783998H2.86H3.868C4.06 0.783998 4.204 0.867999 4.3 1.036C4.396 1.18 4.444 1.372 4.444 1.612C4.444 1.852 4.228 1.972 3.796 1.972L2.968 1.936H2.032C1.84 1.936 1.72 1.972 1.672 2.044C1.624 2.116 1.6 2.308 1.6 2.62C1.6 3.1 1.684 4.852 1.852 7.876C2.02 10.9 2.104 12.664 2.104 13.168C2.392 13.168 2.8 13.096 3.328 12.952C3.88 12.808 4.288 12.736 4.552 12.736C4.696 12.736 4.816 12.82 4.912 12.988C5.032 13.156 5.092 13.312 5.092 13.456C5.092 13.72 4.9 13.9 4.516 13.996C4.132 14.068 3.58 14.128 2.86 14.176C2.356 14.248 2.104 14.392 2.104 14.608C2.104 15.688 2.224 17.704 2.464 20.656C2.68 23.344 2.788 25.372 2.788 26.74L2.68 26.92C2.752 27.088 2.788 27.244 2.788 27.388C2.788 27.844 2.524 28.072 1.996 28.072ZM11.3149 28.216C10.7389 28.216 10.3309 28.156 10.0909 28.036C9.87494 27.94 9.76694 27.736 9.76694 27.424V26.74C9.74294 26.548 9.73094 26.332 9.73094 26.092V26.02L9.76694 20.764L9.73094 5.896C9.73094 4.36 9.70694 3.028 9.65894 1.9C9.65894 1.612 9.71894 1.372 9.83894 1.18C9.95894 0.987999 10.1149 0.891999 10.3069 0.891999H12.5389C12.8749 0.891999 13.1269 0.915999 13.2949 0.963998C13.5349 1.036 13.6549 1.24 13.6549 1.576C13.6549 1.768 13.5829 1.924 13.4389 2.044C13.2949 2.164 13.1389 2.236 12.9709 2.26H12.3589L11.7829 2.224L11.2069 2.188C11.0389 2.188 10.9189 2.224 10.8469 2.296C10.7989 2.344 10.7749 2.452 10.7749 2.62C10.7749 3.748 10.7869 4.768 10.8109 5.68V8.74V13.24C10.8109 13.288 10.8349 13.312 10.8829 13.312H10.9189H10.9549C11.5549 13.264 12.2029 13.24 12.8989 13.24C13.2829 13.24 13.4749 13.408 13.4749 13.744C13.4749 13.984 13.4269 14.152 13.3309 14.248C13.2589 14.32 13.1269 14.356 12.9349 14.356H10.8829C10.7869 14.356 10.7389 14.416 10.7389 14.536L10.8109 19.864C10.8589 21.52 10.8829 23.428 10.8829 25.588V26.92H12.4309H13.9429H14.2669C14.6989 26.92 14.9149 27.076 14.9149 27.388C14.9149 27.772 14.8069 28 14.5909 28.072C14.3029 28.168 13.7149 28.216 12.8269 28.216H11.3149ZM22.1158 28.216C21.8758 28.216 21.6958 28.132 21.5758 27.964C21.4558 27.772 21.3958 27.544 21.3958 27.28V24.076V20.872L21.3238 15.112C21.2518 12.544 21.2158 10.624 21.2158 9.352L21.2518 8.308V5.968C21.2518 3.376 21.2278 2.08 21.1798 2.08H17.1118C16.9198 2.08 16.7398 2.032 16.5718 1.936C16.4278 1.84 16.3558 1.708 16.3558 1.54C16.3558 1.348 16.3918 1.216 16.4638 1.144C16.5358 1.072 16.7278 1.012 17.0398 0.963998C17.3758 0.891999 17.8558 0.856 18.4798 0.856H22.0798L26.0398 0.819998C26.3278 0.819998 26.5198 0.867998 26.6158 0.963998C26.7358 1.06 26.7958 1.216 26.7958 1.432C26.7958 1.792 26.5678 1.972 26.1118 1.972H24.4918H22.9078L22.5838 2.008L22.6198 4.096V6.904V21.52V24.508L22.6558 27.172V27.244C22.6558 27.436 22.6438 27.604 22.6198 27.748C22.5958 27.868 22.5478 27.964 22.4758 28.036C22.4038 28.156 22.2838 28.216 22.1158 28.216ZM36.4559 28.36C35.9759 28.36 35.6759 28.12 35.5559 27.64L35.1239 26.056C34.4519 23.824 33.9599 21.94 33.6479 20.404C33.4559 19.564 33.2159 18.4 32.9279 16.912C32.5919 15.184 32.2799 13.78 31.9919 12.7L31.6319 12.916L31.1639 13.132L31.2359 26.992V27.532C31.2359 28.012 31.0199 28.252 30.5879 28.252C30.3959 28.252 30.2399 28.192 30.1199 28.072C29.9999 27.952 29.9399 27.808 29.9399 27.64V27.1L30.0119 19.828L30.0839 16.336C30.1799 12.136 30.2279 8.56 30.2279 5.608V0.963998C30.2279 0.747998 30.4439 0.639998 30.8759 0.639998C31.4999 0.639998 32.0759 0.807998 32.6039 1.144C33.1559 1.48 33.5879 1.936 33.8999 2.512C34.5479 3.688 34.8719 4.972 34.8719 6.364C34.8719 7.468 34.6319 8.668 34.1519 9.964C34.0079 10.324 33.8279 10.744 33.6119 11.224C33.3959 11.68 33.2039 11.992 33.0359 12.16C33.5399 14.008 34.2719 16.852 35.2319 20.692L36.9239 27.172C36.9479 27.244 36.9599 27.376 36.9599 27.568C36.9599 27.784 36.9119 27.964 36.8159 28.108C36.7439 28.276 36.6239 28.36 36.4559 28.36ZM31.1279 11.944C31.3199 11.944 31.6439 11.716 32.0999 11.26C32.5559 10.804 32.8799 10.42 33.0719 10.108C33.2399 9.772 33.3839 9.268 33.5039 8.596C33.6239 7.924 33.6839 7.324 33.6839 6.796C33.6839 5.812 33.5159 4.804 33.1799 3.772C33.0119 3.172 32.7599 2.692 32.4239 2.332C32.0879 1.948 31.7159 1.756 31.3079 1.756H31.2359C31.2119 1.78 31.1759 1.792 31.1279 1.792V11.944ZM45.0672 28.756C41.7312 28.756 40.0632 22.984 40.0632 11.44V10C40.0632 7.984 40.1832 6.232 40.4232 4.744C40.5672 3.808 40.7592 3.04 40.9992 2.44C41.2632 1.84 41.6112 1.36 42.0432 0.999998C42.4512 0.591999 42.9792 0.387999 43.6272 0.387999C44.2032 0.387999 44.7312 0.507999 45.2112 0.747999C45.6912 0.963999 46.0872 1.252 46.3992 1.612C46.6632 1.948 46.9032 2.392 47.1192 2.944C47.3352 3.496 47.5032 4.024 47.6232 4.528L47.9112 6.22C48.4872 10.324 48.7752 13.96 48.7752 17.128V17.236C48.7752 18.436 48.7512 19.54 48.7032 20.548C48.6552 21.748 48.5232 23.008 48.3072 24.328C48.2112 24.976 48.0672 25.54 47.8752 26.02C47.7072 26.5 47.4792 26.98 47.1912 27.46C46.6872 28.324 45.9792 28.756 45.0672 28.756ZM45.1392 27.748C45.5232 27.748 45.8712 27.532 46.1832 27.1C46.4952 26.644 46.7352 26.02 46.9032 25.228C47.2872 23.548 47.5272 21.904 47.6232 20.296C47.6712 19 47.6952 17.74 47.6952 16.516V16.372L47.6592 12.772C47.6112 11.476 47.4672 9.796 47.2272 7.732C47.0352 6.268 46.6392 4.768 46.0392 3.232C45.7992 2.632 45.4752 2.164 45.0672 1.828C44.6832 1.492 44.2632 1.324 43.8072 1.324C43.3992 1.324 43.0392 1.516 42.7272 1.9C42.4152 2.284 42.1632 2.824 41.9712 3.52C41.5392 5.128 41.2992 6.616 41.2512 7.984C41.1792 9.16 41.1432 10.372 41.1432 11.62V13.384C41.1432 14.992 41.2992 17.032 41.6112 19.504C41.8032 21.064 42.0432 22.42 42.3312 23.572C42.6192 24.724 43.0032 25.696 43.4832 26.488C43.9632 27.328 44.5152 27.748 45.1392 27.748ZM54.8651 28.216C54.6971 28.216 54.5531 28.144 54.4331 28C54.3371 27.856 54.2891 27.676 54.2891 27.46V26.884V26.02C54.2891 24.508 54.2291 22.804 54.1091 20.908C54.0131 18.892 53.9651 17.188 53.9651 15.796C53.9651 14.5 53.9051 11.992 53.7851 8.272C53.6411 4.912 53.5691 2.404 53.5691 0.747999C53.5691 0.627999 53.6171 0.531999 53.7131 0.459998C53.8331 0.363998 53.9651 0.315998 54.1091 0.315998C54.5411 0.315998 54.7571 0.495999 54.7571 0.856C54.7571 5.296 54.7931 8.62 54.8651 10.828L55.0451 17.272C55.0451 18.28 55.1171 19.924 55.2611 22.204L55.4771 26.668C55.4771 26.74 55.5131 26.776 55.5851 26.776C55.6091 26.8 55.7651 26.812 56.0531 26.812H58.2851C58.5971 26.812 58.7531 27.028 58.7531 27.46C58.7531 27.652 58.7171 27.82 58.6451 27.964C58.5731 28.084 58.4651 28.144 58.3211 28.144L58.0691 28.18H57.7811C57.2771 28.204 56.3051 28.216 54.8651 28.216ZM63.7596 28.216C63.5916 28.216 63.4476 28.144 63.3276 28C63.2316 27.856 63.1836 27.676 63.1836 27.46V26.884V26.02C63.1836 24.508 63.1236 22.804 63.0036 20.908C62.9076 18.892 62.8596 17.188 62.8596 15.796C62.8596 14.5 62.7996 11.992 62.6796 8.272C62.5356 4.912 62.4636 2.404 62.4636 0.747999C62.4636 0.627999 62.5116 0.531999 62.6076 0.459998C62.7276 0.363998 62.8596 0.315998 63.0036 0.315998C63.4356 0.315998 63.6516 0.495999 63.6516 0.856C63.6516 5.296 63.6876 8.62 63.7596 10.828L63.9396 17.272C63.9396 18.28 64.0116 19.924 64.1556 22.204L64.3716 26.668C64.3716 26.74 64.4076 26.776 64.4796 26.776C64.5036 26.8 64.6596 26.812 64.9476 26.812H67.1796C67.4916 26.812 67.6476 27.028 67.6476 27.46C67.6476 27.652 67.6116 27.82 67.5396 27.964C67.4676 28.084 67.3596 28.144 67.2156 28.144L66.9636 28.18H66.6756C66.1716 28.204 65.1996 28.216 63.7596 28.216Z" fill="#196A7B"/>
</svg>
