<svg width="68" height="29" viewBox="0 0 68 29" fill="none" xmlns="http://www.w3.org/2000/svg">
<path d="M2.32617 28.2741C1.94217 28.2741 1.75017 27.9621 1.75017 27.3381V24.6741L1.64217 22.4781C1.42617 18.5421 1.31817 15.6501 1.31817 13.8021C1.31817 12.7941 1.18617 9.65015 0.92217 4.37015C0.87417 3.21815 0.83817 2.48615 0.81417 2.17415C0.79017 1.83815 0.77817 1.65815 0.77817 1.63415V1.38215C0.77817 1.21415 0.89817 1.10615 1.13817 1.05815C1.28217 1.01015 1.70217 0.986147 2.39817 0.986147H3.19017H4.19817C4.39017 0.986147 4.53417 1.07015 4.63017 1.23815C4.72617 1.38215 4.77417 1.57415 4.77417 1.81415C4.77417 2.05415 4.55817 2.17415 4.12617 2.17415L3.29817 2.13815H2.36217C2.17017 2.13815 2.05017 2.17415 2.00217 2.24615C1.95417 2.31815 1.93017 2.51015 1.93017 2.82215C1.93017 3.30215 2.01417 5.05415 2.18217 8.07815C2.35017 11.1021 2.43417 12.8661 2.43417 13.3701C2.72217 13.3701 3.13017 13.2981 3.65817 13.1541C4.21017 13.0101 4.61817 12.9381 4.88217 12.9381C5.02617 12.9381 5.14617 13.0221 5.24217 13.1901C5.36217 13.3581 5.42217 13.5141 5.42217 13.6581C5.42217 13.9221 5.23017 14.1021 4.84617 14.1981C4.46217 14.2701 3.91017 14.3301 3.19017 14.3781C2.68617 14.4501 2.43417 14.5941 2.43417 14.8101C2.43417 15.8901 2.55417 17.9061 2.79417 20.8581C3.01017 23.5461 3.11817 25.5741 3.11817 26.9421L3.01017 27.1221C3.08217 27.2901 3.11817 27.4461 3.11817 27.5901C3.11817 28.0461 2.85417 28.2741 2.32617 28.2741ZM11.6451 28.4181C11.0691 28.4181 10.6611 28.3581 10.4211 28.2381C10.2051 28.1421 10.0971 27.9381 10.0971 27.6261V26.9421C10.0731 26.7501 10.0611 26.5341 10.0611 26.2941V26.2221L10.0971 20.9661L10.0611 6.09815C10.0611 4.56215 10.0371 3.23015 9.98911 2.10215C9.98911 1.81415 10.0491 1.57415 10.1691 1.38215C10.2891 1.19015 10.4451 1.09415 10.6371 1.09415H12.8691C13.2051 1.09415 13.4571 1.11815 13.6251 1.16615C13.8651 1.23815 13.9851 1.44215 13.9851 1.77815C13.9851 1.97015 13.9131 2.12615 13.7691 2.24615C13.6251 2.36615 13.4691 2.43815 13.3011 2.46215H12.6891L12.1131 2.42615L11.5371 2.39015C11.3691 2.39015 11.2491 2.42615 11.1771 2.49815C11.1291 2.54615 11.1051 2.65415 11.1051 2.82215C11.1051 3.95015 11.1171 4.97015 11.1411 5.88215V8.94215V13.4421C11.1411 13.4901 11.1651 13.5141 11.2131 13.5141H11.2491H11.2851C11.8851 13.4661 12.5331 13.4421 13.2291 13.4421C13.6131 13.4421 13.8051 13.6101 13.8051 13.9461C13.8051 14.1861 13.7571 14.3541 13.6611 14.4501C13.5891 14.5221 13.4571 14.5581 13.2651 14.5581H11.2131C11.1171 14.5581 11.0691 14.6181 11.0691 14.7381L11.1411 20.0661C11.1891 21.7221 11.2131 23.6301 11.2131 25.7901V27.1221H12.7611H14.2731H14.5971C15.0291 27.1221 15.2451 27.2781 15.2451 27.5901C15.2451 27.9741 15.1371 28.2021 14.9211 28.2741C14.6331 28.3701 14.0451 28.4181 13.1571 28.4181H11.6451ZM22.446 28.4181C22.206 28.4181 22.026 28.3341 21.906 28.1661C21.786 27.9741 21.726 27.7461 21.726 27.4821V24.2781V21.0741L21.654 15.3141C21.582 12.7461 21.546 10.8261 21.546 9.55415L21.582 8.51015V6.17015C21.582 3.57815 21.558 2.28215 21.51 2.28215H17.442C17.25 2.28215 17.07 2.23415 16.902 2.13815C16.758 2.04215 16.686 1.91015 16.686 1.74215C16.686 1.55015 16.722 1.41815 16.794 1.34615C16.866 1.27415 17.058 1.21415 17.37 1.16615C17.706 1.09415 18.186 1.05815 18.81 1.05815H22.41L26.37 1.02215C26.658 1.02215 26.85 1.07015 26.946 1.16615C27.066 1.26215 27.126 1.41815 27.126 1.63415C27.126 1.99415 26.898 2.17415 26.442 2.17415H24.822H23.238L22.914 2.21015L22.95 4.29815V7.10615V21.7221V24.7101L22.986 27.3741V27.4461C22.986 27.6381 22.974 27.8061 22.95 27.9501C22.926 28.0701 22.878 28.1661 22.806 28.2381C22.734 28.3581 22.614 28.4181 22.446 28.4181ZM36.786 28.5621C36.306 28.5621 36.006 28.3221 35.886 27.8421L35.454 26.2581C34.782 24.0261 34.29 22.1421 33.978 20.6061C33.786 19.7661 33.546 18.6021 33.258 17.1141C32.922 15.3861 32.61 13.9821 32.322 12.9021L31.962 13.1181L31.494 13.3341L31.566 27.1941V27.7341C31.566 28.2141 31.35 28.4541 30.918 28.4541C30.726 28.4541 30.57 28.3941 30.45 28.2741C30.33 28.1541 30.27 28.0101 30.27 27.8421V27.3021L30.342 20.0301L30.414 16.5381C30.51 12.3381 30.558 8.76215 30.558 5.81015V1.16615C30.558 0.950147 30.774 0.842147 31.206 0.842147C31.83 0.842147 32.406 1.01015 32.934 1.34615C33.486 1.68215 33.918 2.13815 34.23 2.71415C34.878 3.89015 35.202 5.17415 35.202 6.56615C35.202 7.67015 34.962 8.87015 34.482 10.1661C34.338 10.5261 34.158 10.9461 33.942 11.4261C33.726 11.8821 33.534 12.1941 33.366 12.3621C33.87 14.2101 34.602 17.0541 35.562 20.8941L37.254 27.3741C37.278 27.4461 37.29 27.5781 37.29 27.7701C37.29 27.9861 37.242 28.1661 37.146 28.3101C37.074 28.4781 36.954 28.5621 36.786 28.5621ZM31.458 12.1461C31.65 12.1461 31.974 11.9181 32.43 11.4621C32.886 11.0061 33.21 10.6221 33.402 10.3101C33.57 9.97415 33.714 9.47015 33.834 8.79815C33.954 8.12615 34.014 7.52615 34.014 6.99815C34.014 6.01415 33.846 5.00615 33.51 3.97415C33.342 3.37415 33.09 2.89415 32.754 2.53415C32.418 2.15015 32.046 1.95815 31.638 1.95815H31.566C31.542 1.98215 31.506 1.99415 31.458 1.99415V12.1461ZM45.3974 28.9581C42.0614 28.9581 40.3934 23.1861 40.3934 11.6421V10.2021C40.3934 8.18615 40.5134 6.43415 40.7534 4.94615C40.8974 4.01015 41.0894 3.24215 41.3294 2.64215C41.5934 2.04215 41.9414 1.56215 42.3734 1.20215C42.7814 0.794147 43.3094 0.590148 43.9574 0.590148C44.5334 0.590148 45.0614 0.710148 45.5414 0.950147C46.0214 1.16615 46.4174 1.45415 46.7294 1.81415C46.9934 2.15015 47.2334 2.59415 47.4494 3.14615C47.6654 3.69815 47.8334 4.22615 47.9534 4.73015L48.2414 6.42215C48.8174 10.5261 49.1054 14.1621 49.1054 17.3301V17.4381C49.1054 18.6381 49.0814 19.7421 49.0334 20.7501C48.9854 21.9501 48.8534 23.2101 48.6374 24.5301C48.5414 25.1781 48.3974 25.7421 48.2054 26.2221C48.0374 26.7021 47.8094 27.1821 47.5214 27.6621C47.0174 28.5261 46.3094 28.9581 45.3974 28.9581ZM45.4694 27.9501C45.8534 27.9501 46.2014 27.7341 46.5134 27.3021C46.8254 26.8461 47.0654 26.2221 47.2334 25.4301C47.6174 23.7501 47.8574 22.1061 47.9534 20.4981C48.0014 19.2021 48.0254 17.9421 48.0254 16.7181V16.5741L47.9894 12.9741C47.9414 11.6781 47.7974 9.99815 47.5574 7.93415C47.3654 6.47015 46.9694 4.97015 46.3694 3.43415C46.1294 2.83415 45.8054 2.36615 45.3974 2.03015C45.0134 1.69415 44.5934 1.52615 44.1374 1.52615C43.7294 1.52615 43.3694 1.71815 43.0574 2.10215C42.7454 2.48615 42.4934 3.02615 42.3014 3.72215C41.8694 5.33015 41.6294 6.81815 41.5814 8.18615C41.5094 9.36215 41.4734 10.5741 41.4734 11.8221V13.5861C41.4734 15.1941 41.6294 17.2341 41.9414 19.7061C42.1334 21.2661 42.3734 22.6221 42.6614 23.7741C42.9494 24.9261 43.3334 25.8981 43.8134 26.6901C44.2934 27.5301 44.8454 27.9501 45.4694 27.9501ZM55.1953 28.4181C55.0273 28.4181 54.8833 28.3461 54.7633 28.2021C54.6673 28.0581 54.6193 27.8781 54.6193 27.6621V27.0861V26.2221C54.6193 24.7101 54.5593 23.0061 54.4393 21.1101C54.3433 19.0941 54.2953 17.3901 54.2953 15.9981C54.2953 14.7021 54.2353 12.1941 54.1153 8.47415C53.9713 5.11415 53.8993 2.60615 53.8993 0.950147C53.8993 0.830148 53.9473 0.734147 54.0433 0.662147C54.1633 0.566147 54.2953 0.518147 54.4393 0.518147C54.8713 0.518147 55.0873 0.698147 55.0873 1.05815C55.0873 5.49815 55.1233 8.82215 55.1953 11.0301L55.3753 17.4741C55.3753 18.4821 55.4473 20.1261 55.5913 22.4061L55.8073 26.8701C55.8073 26.9421 55.8433 26.9781 55.9153 26.9781C55.9393 27.0021 56.0953 27.0141 56.3833 27.0141H58.6153C58.9273 27.0141 59.0833 27.2301 59.0833 27.6621C59.0833 27.8541 59.0473 28.0221 58.9753 28.1661C58.9033 28.2861 58.7953 28.3461 58.6513 28.3461L58.3993 28.3821H58.1113C57.6073 28.4061 56.6353 28.4181 55.1953 28.4181ZM64.0898 28.4181C63.9218 28.4181 63.7778 28.3461 63.6578 28.2021C63.5618 28.0581 63.5138 27.8781 63.5138 27.6621V27.0861V26.2221C63.5138 24.7101 63.4538 23.0061 63.3338 21.1101C63.2378 19.0941 63.1898 17.3901 63.1898 15.9981C63.1898 14.7021 63.1298 12.1941 63.0098 8.47415C62.8658 5.11415 62.7938 2.60615 62.7938 0.950147C62.7938 0.830148 62.8418 0.734147 62.9378 0.662147C63.0578 0.566147 63.1898 0.518147 63.3338 0.518147C63.7658 0.518147 63.9818 0.698147 63.9818 1.05815C63.9818 5.49815 64.0178 8.82215 64.0898 11.0301L64.2698 17.4741C64.2698 18.4821 64.3418 20.1261 64.4858 22.4061L64.7018 26.8701C64.7018 26.9421 64.7378 26.9781 64.8098 26.9781C64.8338 27.0021 64.9898 27.0141 65.2778 27.0141H67.5098C67.8218 27.0141 67.9778 27.2301 67.9778 27.6621C67.9778 27.8541 67.9418 28.0221 67.8698 28.1661C67.7978 28.2861 67.6898 28.3461 67.5458 28.3461L67.2938 28.3821H67.0058C66.5018 28.4061 65.5298 28.4181 64.0898 28.4181Z" fill="#FFC700"/>
</svg>
