<svg width="548" height="493" viewBox="0 0 548 493" fill="none" xmlns="http://www.w3.org/2000/svg">
<path fill-rule="evenodd" clip-rule="evenodd" d="M118.174 -172.286C186.764 -182.862 252.356 -212.642 319.837 -196.455C401.802 -176.794 495.983 -148.316 533.211 -72.7302C570.49 2.95832 527.74 91.9735 501.372 172.122C478.269 242.348 446.317 308.972 391.359 358.447C337.31 407.104 267.349 426.35 197.282 445.875C114.402 468.97 28.9139 511.421 -51.9174 481.97C-136.837 451.029 -206.635 375.589 -232.884 289.14C-257.831 206.981 -215.415 122.827 -185.397 42.3729C-160.337 -24.791 -132.932 -94.2687 -74.3828 -135.669C-19.7043 -174.333 51.9814 -162.079 118.174 -172.286Z" fill="#CCEBEF"/>
</svg>
