<svg width="462" height="589" viewBox="0 0 462 589" fill="none" xmlns="http://www.w3.org/2000/svg">
<path fill-rule="evenodd" clip-rule="evenodd" d="M328.324 8.12497C400.738 7.46468 478.745 -16.8908 539.802 22.0491C601.92 61.6656 641.673 136.588 645.148 210.182C648.337 277.743 587.379 326.986 557.053 387.443C532.725 435.941 526.006 493.286 485.201 529.047C442.144 566.781 385.356 592.9 328.324 587.895C273.181 583.057 239.108 529.184 190.25 503.167C129.443 470.787 37.5362 479.42 7.85868 417.25C-21.35 356.061 38.9115 290.334 57.5305 225.138C77.1142 156.565 63.9787 70.478 119.629 25.8803C175.475 -18.8753 256.759 8.77751 328.324 8.12497Z" fill="#CCEBEF"/>
</svg>
