<svg width="242" height="323" viewBox="0 0 242 323" fill="none" xmlns="http://www.w3.org/2000/svg">
<path fill-rule="evenodd" clip-rule="evenodd" d="M449.6 189.051C447.542 214.806 459.216 242.14 438.746 263.823C413.884 290.16 381.232 319.613 323.706 322.411C266.101 325.213 210.213 297.828 158.231 277.467C112.685 259.626 70.8489 239.146 44.0583 212.872C17.7109 187.033 13.9426 159.6 9.99575 132.091C5.32698 99.5512 -12.4103 63.4264 19.088 38.837C52.1794 13.0039 114.065 -1.35359 177.623 1.23166C238.027 3.68866 290.589 30.2865 342.283 51.9832C385.437 70.0959 429.875 89.3579 450.573 115.794C469.903 140.482 451.586 164.195 449.6 189.051Z" fill="#CCEBEF"/>
</svg>
