<svg width="411" height="615" viewBox="0 0 411 615" fill="none" xmlns="http://www.w3.org/2000/svg">
<path fill-rule="evenodd" clip-rule="evenodd" d="M181.481 102.944C234.972 140.117 298.138 163.208 334.523 216.624C378.716 281.505 425.901 359.785 405.261 431.474C384.593 503.261 300.91 532.301 233.876 566.202C175.141 595.907 112.538 617.671 44.6345 613.856C-22.1459 610.105 -81.8733 577.547 -141.843 545.097C-212.779 506.714 -297.327 478.922 -334.764 408.565C-374.094 334.649 -375.876 242.219 -341.073 170.672C-307.997 102.674 -227.512 76.4995 -157.788 44.7392C-99.5814 18.2253 -38.3531 -8.25351 27.0805 2.97225C88.1887 13.4559 129.859 67.0701 181.481 102.944Z" fill="#CCEBEF"/>
</svg>
