<svg width="839" height="175" viewBox="0 0 839 175" fill="none" xmlns="http://www.w3.org/2000/svg">
<path fill-rule="evenodd" clip-rule="evenodd" d="M426.551 -537.284C520.427 -551.168 620.283 -568.581 702.387 -534.896C784.099 -501.371 824.464 -428.691 859.467 -359.67C892.738 -294.065 897.393 -224.037 896.853 -151.443C896.18 -60.9322 933.336 44.2082 855.951 113.409C778.68 182.508 645.242 175.037 534.381 172.697C441.603 170.739 366.336 129.827 282.478 101.305C192.099 70.5659 74.163 68.1346 25.2622 -0.462286C-24.1996 -69.8461 13.2605 -160.83 37.6576 -242.123C60.8702 -319.47 88.7622 -399.597 161.65 -454.917C233.302 -509.3 332.21 -523.33 426.551 -537.284Z" fill="#CCEBEF"/>
</svg>
