<svg width="204" height="76" viewBox="0 0 204 76" fill="none" xmlns="http://www.w3.org/2000/svg">
<path fill-rule="evenodd" clip-rule="evenodd" d="M144.599 -164.231C171.428 -151.445 174.242 -115.183 185.128 -87.7148C194.366 -64.4045 207.183 -41.2753 203.074 -16.681C199.057 7.35881 182.587 27.4741 163.366 42.526C146.07 56.0704 123.435 57.2847 101.979 62.4864C79.0615 68.0426 56.9432 79.221 33.8612 73.9234C7.6403 67.9054 -15.5092 52.352 -32.5633 31.6072C-52.1268 7.80994 -75.0942 -20.9033 -68.6131 -50.7274C-62.1379 -80.5241 -26.1719 -91.6368 -1.78109 -110.042C17.8249 -124.837 36.5383 -138.96 59.6498 -147.515C87.3397 -157.766 117.779 -177.013 144.599 -164.231Z" fill="#CCEBEF"/>
</svg>
