<svg width="636" height="705" viewBox="0 0 636 705" fill="none" xmlns="http://www.w3.org/2000/svg">
<path fill-rule="evenodd" clip-rule="evenodd" d="M360.277 111.701C436.264 162.637 526.928 198.146 574.542 274.321C628.178 360.13 647.204 459.215 628.522 540.849C608.886 626.651 551.588 695.34 470.773 727.759C391.816 759.433 291.945 738.302 195.793 714.44C101.203 690.966 3.48011 661.716 -75.1119 592.287C-154.429 522.218 -216.303 428.18 -233.194 335.47C-248.986 248.786 -206.203 178.637 -161.688 117.079C-125.105 66.4911 -67.3018 39.0178 -4.50205 19.227C52.1052 1.38774 113.425 -7.21893 179.545 9.54294C244.61 26.0373 300.797 71.8297 360.277 111.701Z" fill="#CCEBEF"/>
</svg>
