<svg width="301" height="558" viewBox="0 0 301 558" fill="none" xmlns="http://www.w3.org/2000/svg">
<path fill-rule="evenodd" clip-rule="evenodd" d="M-133.36 4.19803C-72.848 -14.672 -19.4053 49.6525 42.5255 63.1554C107.439 77.3086 184.315 42.6485 235.769 84.6799C288.497 127.752 302.061 205.304 299.841 273.352C297.751 337.384 264.98 395.573 224.015 444.831C187.208 489.087 136.262 516.306 81.9426 535.354C29.967 553.579 -25.5276 566.003 -78.497 550.908C-130.439 536.105 -161.803 488.487 -203.398 454.034C-257.078 409.571 -347.761 389.106 -357.217 320.047C-366.566 251.775 -284.505 208.932 -244.658 152.711C-207.989 100.973 -193.899 23.0767 -133.36 4.19803Z" fill="#CCEBEF"/>
</svg>
