<svg width="39" height="39" viewBox="0 0 39 39" fill="none" xmlns="http://www.w3.org/2000/svg">
<circle cx="19.5" cy="19.5" r="19" fill="white" stroke="#F1651F"/>
<path d="M26 13.8666L13.8667 26" stroke="#F1651F" stroke-width="2" stroke-linecap="round" stroke-linejoin="round"/>
<path d="M15.1667 17.3333C16.3633 17.3333 17.3333 16.3633 17.3333 15.1667C17.3333 13.97 16.3633 13 15.1667 13C13.97 13 13 13.97 13 15.1667C13 16.3633 13.97 17.3333 15.1667 17.3333Z" stroke="#F1651F" stroke-width="2" stroke-linecap="round" stroke-linejoin="round"/>
<path d="M24.7001 26.8667C25.8967 26.8667 26.8668 25.8966 26.8668 24.7C26.8668 23.5034 25.8967 22.5333 24.7001 22.5333C23.5035 22.5333 22.5334 23.5034 22.5334 24.7C22.5334 25.8966 23.5035 26.8667 24.7001 26.8667Z" stroke="#F1651F" stroke-width="2" stroke-linecap="round" stroke-linejoin="round"/>
</svg>
