<svg width="514" height="528" viewBox="0 0 514 528" fill="none" xmlns="http://www.w3.org/2000/svg">
<path fill-rule="evenodd" clip-rule="evenodd" d="M255.589 6.08917C302.803 14.2078 341.719 45.3791 376.861 79.3689C408.374 109.848 424.855 150.085 445.294 189.574C471.329 239.875 522.047 285.154 512.532 341.49C502.959 398.173 444.659 428.606 399.4 461.299C355.261 493.183 309.053 531.477 255.589 527.093C203.312 522.805 170.049 470.724 127.269 438.981C83.7915 406.722 18.3344 393.426 3.30992 339.904C-11.7184 286.368 39.4744 239.26 56.3455 186.329C73.018 134.021 61.5906 68.0649 101.447 32.0097C141.809 -4.50241 202.95 -2.96251 255.589 6.08917Z" fill="#CCEBEF"/>
</svg>
